{"title":"Jupiter Ascending 2015 720p HDCAM NEW VIDEO AND AUDIO x264 Pimp4","uid":11722541,"size":2266137506,"categoryP":"video","categoryS":"movies","magnet":"?xt=urn:btih:2a8a980dded97671b5cfec3c8e39eefc86027ef7&amp;dn=Jupiter+Ascending+2015+720p+HDCAM+NEW+VIDEO+AND+AUDIO+x264+Pimp4&amp;tr=udp%3A%2F%2Ftracker.openbittorrent.com%3A80&amp;tr=udp%3A%2F%2Fopen.demonii.com%3A1337&amp;tr=udp%3A%2F%2Ftracker.coppersurfer.tk%3A6969&amp;tr=udp%3A%2F%2Fexodus.desync.com%3A6969","seeders":9,"leechers":0,"uploader":"shawnmurthy","files":2,"time":1424911289,"description":"NEW VIDEO AND NEW AUDIO SOURCE...BOTH IS VERY GOOD AND BETTER THEN MY FIRST CAM...DID THE USUAL WORK AND MADE IT BETTER AND WATCHABLE\nENJOY...PIMP4003\n\nSCREENSHOTS GO HERE..pimp4003DOTnet/torrents.php?id=2a8a980dded97671b5cfec3c8e39eefc86027ef7\n &lt;a href=&quot;\nhttp://i.imgur.com/J3ny9bJ.jpg&quot; rel=&quot;nofollow&quot; target=&quot;_NEW&quot;&gt;\nhttp://i.imgur.com/J3ny9bJ.jpg&lt;/a&gt;\n &lt;a href=&quot;\nhttp://i.imgur.com/SpsuXOR.png&quot; rel=&quot;nofollow&quot; target=&quot;_NEW&quot;&gt;\nhttp://i.imgur.com/SpsuXOR.png&lt;/a&gt;\n\nPIMP THE ONE AND ONLY PIMPSTER.....PRESENTS\n\nfacebookDOTcom/OfficialPimp4003\n\ntwitterDOTcom/KingPimp4003\n &lt;a href=&quot;\nhttp://i.imgur.com/DTHBNIi.jpg&quot; rel=&quot;nofollow&quot; target=&quot;_NEW&quot;&gt;\nhttp://i.imgur.com/DTHBNIi.jpg&lt;/a&gt;\n\nJupiter Ascending 2015 720p HDCAM NEW VIDEO AND AUDIO x264 Pimp4003\n &lt;a href=&quot;\nhttp://www.imdb.com/title/tt1617661/&quot; rel=&quot;nofollow&quot; target=&quot;_NEW&quot;&gt;\nhttp://www.imdb.com/title/tt1617661/&lt;/a&gt;\n\nIn a bright and colorful future, a young destitute caretaker gets targeted by the ruthless son of a powerful family who lives on a planet in need of a new heir, so she travels with a genetically engineered warrior to the planet in order to stop his tyrant reign.\n\nDirectors: Andy Wachowski (as The Wachowskis) , Lana Wachowski (as The Wachowskis)\n\nWriters: Andy Wachowski, Lana Wachowski\n\nStars: Channing Tatum, Mila Kunis, Eddie Redmayne |See full cast and crew Â»\n\nVideo\nID                                       : 1\nFormat                                   : MPEG-4 Visual\nFormat profile                           : Simple@L3\nFormat settings, BVOP                    : No\nFormat settings, QPel                    : No\nFormat settings, GMC                     : No warppoints\nFormat settings, Matrix                  : Default (H.263)\nCodec ID                                 : 20\nDuration                                 : 1h 52mn\nBit rate                                 : 2 547 Kbps\nWidth                                    : 1 280 pixels\nHeight                                   : 536 pixels\nDisplay aspect ratio                     : 2.40:1\nFrame rate mode                          : Variable\nFrame rate                               : 59.940 fps\nMinimum frame rate                       : 59.916 fps\nMaximum frame rate                       : 60.157 fps\nColor space                              : YUV\nChroma subsampling                       : 4:2:0\nBit depth                                : 8 bits\nScan type                                : Progressive\nCompression mode                         : Lossy\nBits/(Pixel*Frame)                       : 0.062\nStream size                              : 2.00 GiB (95%)\nWriting library                          : ZJMedia MPEG Encoder\n\nAudio\nID                                       : 2\nFormat                                   : AAC\nFormat/Info                              : Advanced Audio Codec\nFormat profile                           : LC\nCodec ID                                 : 40\nDuration                                 : 1h 52mn\nBit rate mode                            : Variable\nBit rate                                 : 129 Kbps\nChannel(s)                               : 2 channels\nChannel positions                        : Front: L R\nSampling rate                            : 48.0 KHz\nCompression mode                         : Lossy\nStream size                              : 104 MiB (5%)\nLanguage                                 : English","torrent":{"xt":"urn:btih:2a8a980dded97671b5cfec3c8e39eefc86027ef7","amp;dn":"Jupiter+Ascending+2015+720p+HDCAM+NEW+VIDEO+AND+AUDIO+x264+Pimp4","amp;tr":["udp%3A%2F%2Ftracker.openbittorrent.com%3A80","udp%3A%2F%2Fopen.demonii.com%3A1337","udp%3A%2F%2Ftracker.coppersurfer.tk%3A6969","udp%3A%2F%2Fexodus.desync.com%3A6969"],"infoHash":"2a8a980dded97671b5cfec3c8e39eefc86027ef7","infoHashBuffer":{"type":"Buffer","data":[42,138,152,13,222,217,118,113,181,207,236,60,142,57,238,252,134,2,126,247]},"announce":[],"urlList":[]}}